<?xml version="1.0"?>
<svg width="640" height="480" xmlns="http://www.w3.org/2000/svg" xmlns:svg="http://www.w3.org/2000/svg">
 <!-- Created with SVG-edit - https://github.com/SVG-Edit/svgedit-->
 <g class="layer">
  <title>Layer 1</title>
  <ellipse cx="273.000005" cy="251.500004" fill="#003f7f" id="svg_1" rx="177.500005" ry="135.999996" stroke="#000000" stroke-dasharray="null" stroke-linecap="null" stroke-linejoin="null" stroke-width="5"/>
  <text fill="#ffff00" font-family="serif" font-size="24" id="svg_3" stroke="#000000" stroke-dasharray="null" stroke-linecap="null" stroke-linejoin="null" stroke-width="0" text-anchor="middle" transform="matrix(3.85912 0 0 4.08133 -332.264 -735.914)" x="155.94288" xml:space="preserve" y="248.488356">LMC 16</text>
  <text fill="#ffff00" font-family="serif" font-size="24" id="svg_4" stroke="#000000" stroke-dasharray="null" stroke-linecap="null" stroke-linejoin="null" stroke-width="0" text-anchor="middle" transform="matrix(1.29018 0 0 1.42308 -57.8005 -126.712)" x="254.150509" xml:space="preserve" y="321.905405">Nicaragua</text>
  <polygon cx="187.5" cy="172.5" fill="#ffff00" id="svg_5" orient="point" point="5" points="187,154.8333282470703 191.23568725585938,166.8751983642578 204.134033203125,167.13516235351562 193.8536834716797,174.83692932128906 197.589599609375,187.03933715820312 187,179.75765991210938 176.410400390625,187.03933715820312 180.1463165283203,174.83692932128906 169.865966796875,167.13516235351562 182.76431274414062,166.8751983642578 187,154.8333282470703 191.23568725585938,166.8751983642578 " r="0.666667" r2="0.266667" shape="star" stroke="#000000" stroke-width="0" strokeWidth="0" strokecolor="#000000"/>
  <polygon cx="187.5" cy="172.5" fill="#ffff00" id="svg_6" orient="point" point="5" points="276.5,153.89698791503906 280.7356872558594,165.93887329101562 293.634033203125,166.19882202148438 283.35369873046875,173.90060424804688 287.089599609375,186.10299682617188 276.5,178.82131958007812 265.910400390625,186.10299682617188 269.64630126953125,173.90060424804688 259.365966796875,166.19882202148438 272.2643127441406,165.93887329101562 276.5,153.89698791503906 280.7356872558594,165.93887329101562 " r="0.666667" r2="0.266667" shape="star" stroke="#000000" stroke-width="0" strokeWidth="0" strokecolor="#000000"/>
  <polygon cx="187.5" cy="172.5" fill="#ffff00" id="svg_7" orient="point" point="5" points="353.5,151.89698791503906 357.7356872558594,163.93887329101562 370.634033203125,164.19882202148438 360.35369873046875,171.90060424804688 364.089599609375,184.10299682617188 353.5,176.82131958007812 342.910400390625,184.10299682617188 346.64630126953125,171.90060424804688 336.365966796875,164.19882202148438 349.2643127441406,163.93887329101562 353.5,151.89698791503906 357.7356872558594,163.93887329101562 " r="0.666667" r2="0.266667" shape="star" stroke="#000000" stroke-width="0" strokeWidth="0" strokecolor="#000000"/>
 </g>
</svg>